<?xml version="1.0" encoding="UTF-8"?>
<svg width="48" height="16" viewBox="0 0 48 16" xmlns="http://www.w3.org/2000/svg">
    <g fill="none" fill-rule="evenodd">
        <path d="M44.097 1.5H3.903C2.577 1.5 1.5 2.576 1.5 3.903v8.694c0 1.327 1.077 2.403 2.403 2.403h40.194c1.327 0 2.403-1.076 2.403-2.403V3.903c0-1.327-1.076-2.403-2.403-2.403z" fill="#fff" stroke="#E6E6E6"/>
        <path d="M8.684 8.243l-.857-2.082h-1.66l1.374 3.316-1.374 3.316h1.66l.857-2.082.857 2.082h1.66L9.827 9.477l1.374-3.316H9.54l-.857 2.082zm5.48-2.082h-1.517v6.632h1.517v-6.632zm3.963 0h-1.517v6.632h1.517v-6.632zm7.925 0h-1.66l-1.374 3.316 1.374 3.316h1.66l-.857-2.082.857-2.082-.857-2.082.857 2.082z" fill="#006FCF"/>
        <path d="M31.316 8.243l-.857-2.082h-1.66l1.374 3.316-1.374 3.316h1.66l.857-2.082.857 2.082h1.66l-1.374-3.316 1.374-3.316h-1.66l-.857 2.082z" fill="#006FCF"/>
        <path fill="#006FCF" d="M35.279 6.161h1.517v6.632h-1.517z"/>
    </g>
</svg>