<?xml version="1.0" encoding="UTF-8"?>
<svg width="48" height="16" viewBox="0 0 48 16" xmlns="http://www.w3.org/2000/svg">
    <g fill="none" fill-rule="evenodd">
        <path d="M44.097 1.5H3.903C2.577 1.5 1.5 2.576 1.5 3.903v8.694c0 1.327 1.077 2.403 2.403 2.403h40.194c1.327 0 2.403-1.076 2.403-2.403V3.903c0-1.327-1.076-2.403-2.403-2.403z" fill="#fff" stroke="#E6E6E6"/>
        <path d="M24.142 8.5c0-.914-.741-1.655-1.655-1.655-.914 0-1.655.741-1.655 1.655 0 .914.741 1.655 1.655 1.655.914 0 1.655-.741 1.655-1.655" fill="#EA4335"/>
        <path d="M27.452 8.5c0-.914-.741-1.655-1.655-1.655-.914 0-1.655.741-1.655 1.655 0 .914.741 1.655 1.655 1.655.914 0 1.655-.741 1.655-1.655" fill="#FBBC04"/>
        <path d="M30.762 8.5c0-.914-.741-1.655-1.655-1.655-.914 0-1.655.741-1.655 1.655 0 .914.741 1.655 1.655 1.655.914 0 1.655-.741 1.655-1.655" fill="#34A853"/>
        <path d="M34.072 8.5c0-.914-.741-1.655-1.655-1.655-.914 0-1.655.741-1.655 1.655 0 .914.741 1.655 1.655 1.655.914 0 1.655-.741 1.655-1.655" fill="#4285F4"/>
        <path d="M17.622 6.845h-3.31v3.31h3.31v-3.31z" fill="#4285F4"/>
    </g>
</svg>