<?xml version="1.0" encoding="UTF-8"?>
<svg width="48" height="16" viewBox="0 0 48 16" xmlns="http://www.w3.org/2000/svg">
    <g fill="none" fill-rule="evenodd">
        <path d="M44.097 1.5H3.903C2.577 1.5 1.5 2.576 1.5 3.903v8.694c0 1.327 1.077 2.403 2.403 2.403h40.194c1.327 0 2.403-1.076 2.403-2.403V3.903c0-1.327-1.076-2.403-2.403-2.403z" fill="#fff" stroke="#E6E6E6"/>
        <path d="M35.45 11.583c1.57 0 2.842-1.271 2.842-2.842 0-1.57-1.271-2.842-2.842-2.842-1.57 0-2.842 1.271-2.842 2.842 0 1.57 1.271 2.842 2.842 2.842z" fill="#F79E1B"/>
        <path d="M12.55 11.583c1.57 0 2.842-1.271 2.842-2.842 0-1.57-1.271-2.842-2.842-2.842-1.57 0-2.842 1.271-2.842 2.842 0 1.57 1.271 2.842 2.842 2.842z" fill="#EB001B"/>
        <path d="M24 5.9c-1.57 0-2.842 1.271-2.842 2.842 0 1.57 1.271 2.842 2.842 2.842 1.57 0 2.842-1.271 2.842-2.842 0-1.57-1.271-2.842-2.842-2.842z" fill="#FF5F00"/>
    </g>
</svg>