<?xml version="1.0" encoding="UTF-8"?>
<svg width="48" height="16" viewBox="0 0 48 16" xmlns="http://www.w3.org/2000/svg">
    <g fill="none" fill-rule="evenodd">
        <path d="M38.724 6.663c0-1.084-.883-1.967-1.967-1.967H11.243c-1.084 0-1.967.883-1.967 1.967v3.934c0 1.084.883 1.967 1.967 1.967h25.514c1.084 0 1.967-.883 1.967-1.967V6.663z" fill="#635BFF"/>
        <path d="M14.5 9.5c0-.276.224-.5.5-.5h1c.276 0 .5.224.5.5s-.224.5-.5.5h-1c-.276 0-.5-.224-.5-.5zm4 0c0-.276.224-.5.5-.5h1c.276 0 .5.224.5.5s-.224.5-.5.5h-1c-.276 0-.5-.224-.5-.5zm4 0c0-.276.224-.5.5-.5h1c.276 0 .5.224.5.5s-.224.5-.5.5h-1c-.276 0-.5-.224-.5-.5zm4 0c0-.276.224-.5.5-.5h1c.276 0 .5.224.5.5s-.224.5-.5.5h-1c-.276 0-.5-.224-.5-.5zm4 0c0-.276.224-.5.5-.5h1c.276 0 .5.224.5.5s-.224.5-.5.5h-1c-.276 0-.5-.224-.5-.5z" fill="#fff"/>
    </g>
</svg>