<?xml version="1.0" encoding="UTF-8"?>
<svg width="48" height="16" viewBox="0 0 48 16" xmlns="http://www.w3.org/2000/svg">
    <g fill="none" fill-rule="evenodd">
        <path d="M44.097 1.5H3.903C2.577 1.5 1.5 2.576 1.5 3.903v8.694c0 1.327 1.077 2.403 2.403 2.403h40.194c1.327 0 2.403-1.076 2.403-2.403V3.903c0-1.327-1.076-2.403-2.403-2.403z" fill="#fff" stroke="#E6E6E6"/>
        <path d="M17.98 11.583h-2.154L14.108 4.76h2.154l1.718 6.824zm-5.353-4.455l-.227-1.108-.755-1.467c-.302-.567-1.206-.794-1.96-.794H5.567L5.5 4.002c2.191.529 4.079 1.782 4.683 3.126l-1.206 4.455h2.154l2.191-6.824h2.154l.529 2.369-.604 1.934zm14.897 4.455l3.627-6.824h-2.004l-2.267 4.38-2.267-4.38h-2.04l3.627 6.824h1.324zM38.69 4.76h-1.886l-2.646 6.824h1.923l.378-.945h2.495l.378.945h1.923L38.69 4.76zm-1.7 4.531l.756-1.934.756 1.934h-1.51z" fill="#172B85"/>
        <path d="M12.4 5.705l-.227-1.108-.755-1.467c-.302-.567-1.206-.794-1.96-.794H5.34l-.076.227c2.191.529 3.853 1.555 4.457 2.9l.227.242h2.154l.302-.756z" fill="#F7B600"/>
    </g>
</svg>